<mxfile host="app.diagrams.net" agent="Mozilla/5.0 (Macintosh; Intel Mac OS X 10_15_7) AppleWebKit/537.36 (KHTML, like Gecko) Chrome/131.0.0.0 Safari/537.36" version="24.9.0">
  <diagram name="第 1 页" id="ja64RZdiGWaDTQ2Dtreu">
    <mxGraphModel dx="1026" dy="650" grid="0" gridSize="10" guides="1" tooltips="1" connect="1" arrows="1" fold="1" page="1" pageScale="1" pageWidth="827" pageHeight="1169" math="0" shadow="0">
      <root>
        <mxCell id="0" />
        <mxCell id="1" parent="0" />
        <mxCell id="cGee_Op4K-IB3bADNp6z-14" value="" style="whiteSpace=wrap;html=1;aspect=fixed;dashed=1;" vertex="1" parent="1">
          <mxGeometry x="433" y="381" width="134" height="134" as="geometry" />
        </mxCell>
        <mxCell id="cGee_Op4K-IB3bADNp6z-9" value="" style="rounded=0;whiteSpace=wrap;html=1;dashed=1;" vertex="1" parent="1">
          <mxGeometry x="433" y="217" width="135" height="159" as="geometry" />
        </mxCell>
        <mxCell id="cGee_Op4K-IB3bADNp6z-8" value="" style="rounded=0;whiteSpace=wrap;html=1;dashed=1;" vertex="1" parent="1">
          <mxGeometry x="221" y="219" width="200" height="158" as="geometry" />
        </mxCell>
        <mxCell id="cGee_Op4K-IB3bADNp6z-6" value="" style="rounded=0;whiteSpace=wrap;html=1;dashed=1;" vertex="1" parent="1">
          <mxGeometry x="225.5" y="110" width="340.5" height="67" as="geometry" />
        </mxCell>
        <mxCell id="cGee_Op4K-IB3bADNp6z-1" value="jindoSDK" style="rounded=1;whiteSpace=wrap;html=1;" vertex="1" parent="1">
          <mxGeometry x="302" y="128" width="181" height="31" as="geometry" />
        </mxCell>
        <mxCell id="cGee_Op4K-IB3bADNp6z-4" value="OssServer" style="shape=document;whiteSpace=wrap;html=1;boundedLbl=1;" vertex="1" parent="1">
          <mxGeometry x="249" y="253" width="120" height="36" as="geometry" />
        </mxCell>
        <mxCell id="cGee_Op4K-IB3bADNp6z-10" value="Ns server" style="rounded=0;whiteSpace=wrap;html=1;" vertex="1" parent="1">
          <mxGeometry x="456" y="253" width="93" height="26" as="geometry" />
        </mxCell>
        <mxCell id="cGee_Op4K-IB3bADNp6z-12" value="Oss Object File" style="shape=cylinder3;whiteSpace=wrap;html=1;boundedLbl=1;backgroundOutline=1;size=15;" vertex="1" parent="1">
          <mxGeometry x="267.5" y="422" width="96.5" height="80" as="geometry" />
        </mxCell>
        <mxCell id="cGee_Op4K-IB3bADNp6z-15" value="RocksDB" style="rounded=0;whiteSpace=wrap;html=1;strokeColor=none;" vertex="1" parent="1">
          <mxGeometry x="442.5" y="388" width="120" height="34" as="geometry" />
        </mxCell>
        <mxCell id="cGee_Op4K-IB3bADNp6z-13" value="Pangu" style="rounded=0;whiteSpace=wrap;html=1;fillColor=#757575;" vertex="1" parent="1">
          <mxGeometry x="227.25" y="394" width="187.5" height="22" as="geometry" />
        </mxCell>
        <mxCell id="cGee_Op4K-IB3bADNp6z-11" value="{File, OjectFile}" style="shape=cylinder3;whiteSpace=wrap;html=1;boundedLbl=1;backgroundOutline=1;size=15;" vertex="1" parent="1">
          <mxGeometry x="447" y="416" width="102.5" height="80" as="geometry" />
        </mxCell>
        <mxCell id="cGee_Op4K-IB3bADNp6z-17" value="" style="shape=flexArrow;endArrow=classic;html=1;rounded=0;" edge="1" parent="1">
          <mxGeometry width="50" height="50" relative="1" as="geometry">
            <mxPoint x="439" y="55" as="sourcePoint" />
            <mxPoint x="439" y="127" as="targetPoint" />
          </mxGeometry>
        </mxCell>
        <mxCell id="cGee_Op4K-IB3bADNp6z-18" value="&lt;font style=&quot;font-size: 18px;&quot;&gt;①&lt;/font&gt;" style="rounded=0;whiteSpace=wrap;html=1;fillColor=none;strokeColor=none;" vertex="1" parent="1">
          <mxGeometry x="440" y="61" width="50" height="49" as="geometry" />
        </mxCell>
        <mxCell id="cGee_Op4K-IB3bADNp6z-19" value="&lt;span style=&quot;font-size: 18px;&quot;&gt;②&lt;/span&gt;" style="rounded=0;whiteSpace=wrap;html=1;fillColor=none;strokeColor=none;" vertex="1" parent="1">
          <mxGeometry x="451" y="168" width="50" height="49" as="geometry" />
        </mxCell>
        <mxCell id="cGee_Op4K-IB3bADNp6z-20" value="" style="shape=flexArrow;endArrow=classic;html=1;rounded=0;" edge="1" parent="1">
          <mxGeometry width="50" height="50" relative="1" as="geometry">
            <mxPoint x="461" y="161" as="sourcePoint" />
            <mxPoint x="461" y="233" as="targetPoint" />
          </mxGeometry>
        </mxCell>
        <mxCell id="cGee_Op4K-IB3bADNp6z-23" value="" style="shape=flexArrow;endArrow=classic;html=1;rounded=0;entryX=0.519;entryY=0.037;entryDx=0;entryDy=0;entryPerimeter=0;" edge="1" parent="1" target="cGee_Op4K-IB3bADNp6z-14">
          <mxGeometry width="50" height="50" relative="1" as="geometry">
            <mxPoint x="503" y="290" as="sourcePoint" />
            <mxPoint x="500" y="359" as="targetPoint" />
          </mxGeometry>
        </mxCell>
        <mxCell id="cGee_Op4K-IB3bADNp6z-24" value="&lt;span style=&quot;font-size: 18px;&quot;&gt;③&lt;/span&gt;" style="rounded=0;whiteSpace=wrap;html=1;fillColor=none;strokeColor=none;" vertex="1" parent="1">
          <mxGeometry x="496" y="301" width="50" height="49" as="geometry" />
        </mxCell>
        <mxCell id="cGee_Op4K-IB3bADNp6z-25" value="&lt;span style=&quot;font-size: 18px;&quot;&gt;④&lt;/span&gt;" style="rounded=0;whiteSpace=wrap;html=1;fillColor=none;strokeColor=none;" vertex="1" parent="1">
          <mxGeometry x="316" y="174" width="50" height="49" as="geometry" />
        </mxCell>
        <mxCell id="cGee_Op4K-IB3bADNp6z-26" value="" style="shape=flexArrow;endArrow=classic;html=1;rounded=0;" edge="1" parent="1">
          <mxGeometry width="50" height="50" relative="1" as="geometry">
            <mxPoint x="320.5" y="170" as="sourcePoint" />
            <mxPoint x="320.5" y="242" as="targetPoint" />
          </mxGeometry>
        </mxCell>
        <mxCell id="cGee_Op4K-IB3bADNp6z-27" value="&lt;span style=&quot;font-size: 18px;&quot;&gt;⑤&lt;/span&gt;" style="rounded=0;whiteSpace=wrap;html=1;fillColor=none;strokeColor=none;" vertex="1" parent="1">
          <mxGeometry x="304" y="301" width="50" height="49" as="geometry" />
        </mxCell>
        <mxCell id="cGee_Op4K-IB3bADNp6z-28" value="" style="shape=flexArrow;endArrow=classic;html=1;rounded=0;" edge="1" parent="1">
          <mxGeometry width="50" height="50" relative="1" as="geometry">
            <mxPoint x="312" y="301" as="sourcePoint" />
            <mxPoint x="312" y="373" as="targetPoint" />
          </mxGeometry>
        </mxCell>
        <mxCell id="cGee_Op4K-IB3bADNp6z-30" value="" style="shape=curlyBracket;whiteSpace=wrap;html=1;rounded=1;flipH=1;labelPosition=right;verticalLabelPosition=middle;align=left;verticalAlign=middle;" vertex="1" parent="1">
          <mxGeometry x="392" y="424" width="55" height="82" as="geometry" />
        </mxCell>
        <mxCell id="cGee_Op4K-IB3bADNp6z-32" value="" style="line;strokeWidth=2;html=1;" vertex="1" parent="1">
          <mxGeometry x="394" y="446" width="26" height="10" as="geometry" />
        </mxCell>
        <mxCell id="cGee_Op4K-IB3bADNp6z-33" value="" style="line;strokeWidth=2;html=1;" vertex="1" parent="1">
          <mxGeometry x="395" y="478" width="25" height="10" as="geometry" />
        </mxCell>
        <mxCell id="cGee_Op4K-IB3bADNp6z-34" value="&lt;font style=&quot;font-size: 24px;&quot;&gt;N ：1&lt;/font&gt;" style="rounded=0;whiteSpace=wrap;html=1;strokeColor=none;" vertex="1" parent="1">
          <mxGeometry x="356" y="515" width="120" height="42" as="geometry" />
        </mxCell>
      </root>
    </mxGraphModel>
  </diagram>
</mxfile>
